<svg width="147" height="144" viewBox="0 0 147 144" fill="none" xmlns="http://www.w3.org/2000/svg">
<path d="M31.6348 13.6583C41.7807 8.68485 53.22 3.44983 70.3288 4.04666C87.4377 4.64349 86.0532 4.41399 95.3952 7.62757C90.4218 10.2138 77.2917 24.3385 70.3288 37.8664C63.366 51.3943 60.4271 68.138 81.0716 73.4766C95.5942 76.2617 114.012 75.0355 137.371 70.4925C137.836 70.4722 140.554 69.6967 142.345 75.466C144.135 81.2352 141.962 89.2641 139.361 97.7472C136.377 104.113 135.574 109.507 131.005 115.782C128.92 118.646 127.418 120.163 125.037 122.615C120.869 126.684 118.334 128.501 113.3 130.572C111.425 131.544 102.837 134.375 96.3898 133.755M31.6348 13.6583C17.4437 7.56701 -1.09054 35.0812 12.2384 48.2113M31.6348 13.6583C43.7089 23.2867 30.1085 53.7538 12.2384 48.2113M12.2384 48.2113L11.4426 56.7657M11.4426 56.7657C-1.87519 66.6515 3.88287 90.3865 19.2012 91.1822M11.4426 56.7657C28.5329 59.6479 33.7179 83.5125 19.2012 91.1822M19.2012 91.1822C21.2168 95.4926 22.2051 98.8498 24.5924 101.834M24.5924 101.834C20.4227 118.588 42.0793 127.19 50.8326 123.609M24.5924 101.834C40.1423 95.0118 52.8608 114.413 50.8326 123.609M50.8326 123.609L59.7849 127.986M59.7849 127.986C63.6019 143.414 86.0449 143.105 96.3898 133.755M59.7849 127.986C67.4628 114.072 94.8274 121.902 96.3898 133.755" stroke="#FEFEFF" stroke-width="7"/>
</svg>
